<?xml version="1.0" standalone="no"?>
<svg xmlns:xlink="http://www.w3.org/1999/xlink" id="wave" style="transform:rotate(0deg); transition: 0.3s" viewBox="0 0 1440 450" version="1.1" xmlns="http://www.w3.org/2000/svg"><defs><linearGradient id="sw-gradient-0" x1="0" x2="0" y1="1" y2="0"><stop stop-color="rgba(255, 255, 255, 1)" offset="0%"/><stop stop-color="rgba(143.808, 143.808, 143.808, 1)" offset="100%"/></linearGradient></defs><path style="transform:translate(0, 0px); opacity:1" fill="url(#sw-gradient-0)" d="M0,270L60,285C120,300,240,330,360,285C480,240,600,120,720,127.5C840,135,960,270,1080,285C1200,300,1320,195,1440,180C1560,165,1680,240,1800,277.5C1920,315,2040,315,2160,300C2280,285,2400,255,2520,217.5C2640,180,2760,135,2880,97.5C3000,60,3120,30,3240,67.5C3360,105,3480,210,3600,270C3720,330,3840,345,3960,292.5C4080,240,4200,120,4320,82.5C4440,45,4560,90,4680,97.5C4800,105,4920,75,5040,112.5C5160,150,5280,255,5400,292.5C5520,330,5640,300,5760,300C5880,300,6000,330,6120,315C6240,300,6360,240,6480,247.5C6600,255,6720,330,6840,367.5C6960,405,7080,405,7200,367.5C7320,330,7440,255,7560,195C7680,135,7800,90,7920,82.5C8040,75,8160,105,8280,157.5C8400,210,8520,285,8580,322.5L8640,360L8640,450L8580,450C8520,450,8400,450,8280,450C8160,450,8040,450,7920,450C7800,450,7680,450,7560,450C7440,450,7320,450,7200,450C7080,450,6960,450,6840,450C6720,450,6600,450,6480,450C6360,450,6240,450,6120,450C6000,450,5880,450,5760,450C5640,450,5520,450,5400,450C5280,450,5160,450,5040,450C4920,450,4800,450,4680,450C4560,450,4440,450,4320,450C4200,450,4080,450,3960,450C3840,450,3720,450,3600,450C3480,450,3360,450,3240,450C3120,450,3000,450,2880,450C2760,450,2640,450,2520,450C2400,450,2280,450,2160,450C2040,450,1920,450,1800,450C1680,450,1560,450,1440,450C1320,450,1200,450,1080,450C960,450,840,450,720,450C600,450,480,450,360,450C240,450,120,450,60,450L0,450Z"/></svg>